<svg fill="none" xmlns="http://www.w3.org/2000/svg" width="206" height="60" viewBox="0 0 206 60"><rect width="206" height="60" rx="8" fill="#EEE"/><circle cx="26" cy="30" r="5" fill="#ff496e"/><path d="M56.5 45.4c-2.2 0-4.1-.5-5.8-1.6a11 11 0 0 1-3.8-5 21 21 0 0 1-1.4-8.5c0-2.5.3-4.7 1-6.6.7-1.9 1.6-3.4 2.7-4.7a11.2 11.2 0 0 1 8.2-3.7 10.6 10.6 0 0 1 8 3.1l-1.8 1.9a8.7 8.7 0 0 0-6.3-2.5c-1.1 0-2.2.2-3.2.6-1 .5-2 1.1-2.9 2-.8 1-1.5 2.3-2 4-.5 1.5-.7 3.5-.7 6 0 2.8.3 5.2 1 7a8 8 0 0 0 2.8 4.2c1.2.9 2.8 1.3 4.6 1.3a12.9 12.9 0 0 0 6.1-1.6v-9.6h-6.3l-.4-2.5h9.6V43l-4.1 1.7c-1.4.5-3.2.7-5.3.7Zm24.8-31.9V40c0 1.2.4 2 1.1 2.5.8.5 1.7.7 2.9.7a9 9 0 0 0 2-.2l2-.6.7 2-2.1.8c-.9.2-1.8.3-2.9.3-1.7 0-3.2-.4-4.5-1.4a4.9 4.9 0 0 1-1.8-4V15.7h-7v-2.3h9.6Zm33 27c0 1 .2 1.7.5 2 .3.5.8.8 1.4 1l-.7 2a5 5 0 0 1-2.3-1 4 4 0 0 1-1.4-2.3c-.8 1-1.8 1.9-3 2.4-1.1.6-2.4.8-4 .8-2.1 0-3.9-.6-5.1-1.9a6.7 6.7 0 0 1-2-5c0-2.2 1-4 2.7-5.2a14 14 0 0 1 7.8-1.8h3.3v-2.2c0-1.7-.5-3-1.5-3.6a7 7 0 0 0-4-1.1c-.8 0-1.7 0-2.6.2-1 .2-2 .5-3.2 1l-.8-2.3a22.3 22.3 0 0 1 7-1.3c2.6 0 4.5.6 5.9 2 1.3 1.2 2 3 2 5v11.4Zm-8.9 2.8a7 7 0 0 0 3.4-.9 8 8 0 0 0 2.7-2.5v-6.4h-3.7c-2.6 0-4.5.5-5.5 1.4a5 5 0 0 0-1.6 3.7 5 5 0 0 0 1.1 3.5c.8.8 2 1.2 3.6 1.2Zm36.4.6a12.4 12.4 0 0 1-5.6 1.5c-2.3 0-4-.6-5.3-1.8a6 6 0 0 1-2-4.5V24.8h-5.2v-2.2h5.3v-5.2l2.6-.3v5.5h7.9l-.4 2.2h-7.5v14.3c0 1.3.4 2.3 1 3 .8.7 2 1 3.6 1a9 9 0 0 0 4.4-1l1.2 1.8Zm10.4-9c0 1.8.4 3.4 1 4.6.6 1.2 1.5 2 2.5 2.6a7 7 0 0 0 3.4.9 9.6 9.6 0 0 0 6.1-2.1l1.3 2a12 12 0 0 1-7.3 2.5c-2 0-3.8-.5-5.3-1.4a9.3 9.3 0 0 1-3.4-4c-.8-1.8-1.2-3.9-1.2-6.2 0-2.3.4-4.3 1.2-6a9.8 9.8 0 0 1 3.3-4.1c1.5-1 3.1-1.5 5-1.5 1.8 0 3.4.4 4.7 1.3 1.3.9 2.2 2.2 3 3.8a14.4 14.4 0 0 1 1 6.8v.8h-15.3Zm6.7-10.2c-1.9 0-3.4.6-4.6 1.9a8.4 8.4 0 0 0-2 5.9H165c-.1-2.7-.7-4.6-1.8-5.9a5.5 5.5 0 0 0-4.3-2Zm35-2.1-11 10.1L195.3 45h-3.8l-12.2-12.2L190 22.6h4Zm-15.1-9.4V45H176V13.5l2.7-.3Z" fill="#555"/></svg>